<?xml version="1.0" encoding="UTF-8"?>
<svg id="Layer_1" data-name="Layer 1" xmlns="http://www.w3.org/2000/svg" viewBox="0 0 600 385">
  <defs>
    <style>
      .cls-1, .cls-2, .cls-3, .cls-4, .cls-5, .cls-6, .cls-7, .cls-8, .cls-9, .cls-10, .cls-11, .cls-12, .cls-13, .cls-14, .cls-15, .cls-16, .cls-17, .cls-18 {
        stroke-width: 0px;
      }

      .cls-1, .cls-3, .cls-4, .cls-8, .cls-9, .cls-10, .cls-14, .cls-16 {
        fill-rule: evenodd;
      }

      .cls-1, .cls-6 {
        fill: #ed1c24;
      }

      .cls-2, .cls-9 {
        fill: #f1e10a;
      }

      .cls-3, .cls-11 {
        fill: #8b4096;
      }

      .cls-4, .cls-18 {
        fill: #faa31b;
      }

      .cls-5, .cls-16 {
        fill: #008d49;
      }

      .cls-7, .cls-14 {
        fill: #ed027d;
      }

      .cls-8, .cls-13 {
        fill: #2a3989;
      }

      .cls-10, .cls-17 {
        fill: #00a5e0;
      }

      .cls-12 {
        fill: #211d1e;
      }

      .cls-15 {
        fill: #fff;
      }
    </style>
  </defs>
  <path class="cls-15" d="M532.76,349.4H67.24c-18.8,0-34.11-16.01-34.11-35.71V71.31c0-19.7,15.31-35.71,34.11-35.71h465.53c18.8,0,34.11,16.01,34.11,35.71v242.39c0,19.7-15.31,35.71-34.11,35.71Z"/>
  <path class="cls-12" d="M187.72,242.75c0,7.82-3.63,11.73-10.9,11.73h-.65c-6.3,0-10.52-3.7-12.69-11.06l-26.36-91.36-25.38,91.36c-2.18,7.37-6.24,11.06-12.21,11.06h-.81c-7.27,0-10.9-3.91-10.9-11.73v-79.62c-.65.22-1.79.33-3.42.33-6.4,0-11.88-2.32-16.43-6.94-4.56-4.62-6.84-10.18-6.84-16.68s2.28-12.06,6.84-16.68c4.56-4.64,10.04-6.94,16.43-6.94,6.72,0,12.31,2.17,16.76,6.52,4.45,4.35,6.67,10.06,6.67,17.1v33.86c0,2.64-.43,12-1.3,28.09h.65c1.09-5.4,2.71-13.11,4.88-23.13l17.74-60.8h14.64l19.04,60.8c1.3,4.52,2.93,12.22,4.88,23.13h.82l-1.46-28.09v-55.84h20.01v124.89ZM92.85,139.83c0-5.62-2.82-8.43-8.46-8.43s-8.3,2.81-8.3,8.43,2.77,8.42,8.3,8.42,8.46-2.81,8.46-8.42Z"/>
  <path class="cls-12" d="M247.31,253.87h-9.15v-2.49c0-4.24-1.22-11.08-3.65-20.55-3.08-11.43-6.28-17.14-9.6-17.14-1.63,0-3.62,1.85-5.95,5.51-2.73,4.33-4.09,9.29-4.09,14.88.88-.7,2.3-1.06,4.23-1.06,2.94,0,5.43,1.04,7.52,3.13,2.08,2.09,3.12,4.64,3.12,7.66s-1.04,5.38-3.12,7.48c-2.09,2.12-4.58,3.18-7.52,3.18-3.87,0-6.96-1.44-9.3-4.31-2.83-3.42-4.24-8.43-4.24-15.03,0-8.86,2.38-16.34,7.14-22.43,4.07-5.24,8.18-7.85,12.35-7.85s8.06,2.72,11.39,8.16c.93,1.47,1.76,4.41,2.45,8.84h.29c-.69-5.13-1.03-8.39-1.03-9.75v-4.15c0-1.26-1.94-2.97-5.8-5.13-3.87-2.16-7.37-3.25-10.49-3.25-1.94,0-4.4,1.76-7.4,5.25-3,3.51-5.27,7.59-6.8,12.28l-8.49-2.49c2.34-6.51,5.68-12.04,10.04-16.62,4.36-4.59,8.53-6.88,12.5-6.88,5.71,0,11.48,1.89,17.33,5.66,5.51,3.43,8.26,6.32,8.26,8.69v48.41ZM222.9,243.82c0-2.56-1.26-3.85-3.8-3.85s-3.79,1.29-3.79,3.85,1.26,3.86,3.79,3.86,3.8-1.29,3.8-3.86Z"/>
  <path class="cls-12" d="M271.12,154.7c-3.08,6.91-7.24,12.47-12.5,16.69-5.9,4.78-12.53,7.17-19.86,7.17-7.88,0-13.96-1.71-18.23-5.13-3.48-2.87-5.21-6.27-5.21-10.2,0-3.33,1.07-6.01,3.2-8.08,2.13-2.06,4.66-3.09,7.59-3.09s5.51,1.06,7.59,3.17c2.09,2.11,3.13,4.63,3.13,7.55,0,2.67-.87,4.99-2.61,6.95,1.93.41,3.67.55,5.21.45,10.66-.6,18.82-7.09,24.48-19.49l7.22,4.01ZM229.97,162.79c0-2.57-1.28-3.85-3.87-3.85s-3.79,1.28-3.79,3.85,1.26,3.85,3.79,3.85,3.87-1.28,3.87-3.85Z"/>
  <path class="cls-12" d="M294.55,247.83c0,4.43-1.89,6.65-5.66,6.65-2.33,0-4.51-1.09-6.54-3.25l-28.05-31.56,6.84-5.97,24.25,27.49v-28.48c-.3.1-.79.15-1.49.15-2.97,0-5.51-1.06-7.59-3.17-2.08-2.11-3.12-4.66-3.12-7.63s1.04-5.51,3.12-7.63c2.09-2.11,4.62-3.17,7.59-3.17s5.55.95,7.59,2.83c2.03,1.89,3.05,4.54,3.05,7.97v45.77ZM287.7,202.06c0-2.57-1.26-3.85-3.79-3.85s-3.87,1.28-3.87,3.85,1.29,3.85,3.87,3.85,3.79-1.29,3.79-3.85Z"/>
  <path class="cls-12" d="M355.18,183.03c-1.64,5.03-4.32,9.81-8.03,14.35,4.67,3.22,6.99,5.91,6.99,8.08v48.41h-9.15v-2.49c0-4.24-1.22-11.08-3.64-20.55-3.08-11.43-6.28-17.14-9.6-17.14-1.64,0-3.62,1.85-5.95,5.51-2.73,4.33-4.1,9.29-4.1,14.88.89-.7,2.3-1.06,4.24-1.06,2.93,0,5.43,1.04,7.51,3.13,2.09,2.09,3.13,4.64,3.13,7.66s-1.04,5.38-3.13,7.48c-2.08,2.12-4.58,3.18-7.51,3.18-3.87,0-6.97-1.44-9.3-4.31-2.82-3.42-4.24-8.43-4.24-15.03,0-8.86,2.38-16.34,7.14-22.43,4.07-5.24,8.19-7.85,12.35-7.85s8.06,2.72,11.38,8.16c.94,1.47,1.76,4.41,2.46,8.84h.29c-.69-5.13-1.04-8.39-1.04-9.75v-4.15c0-1.26-1.94-2.97-5.8-5.13-3.87-2.16-7.36-3.25-10.49-3.25-1.93,0-4.4,1.76-7.4,5.25-3,3.51-5.27,7.59-6.8,12.28l-8.48-2.49c2.32-6.51,5.67-12.04,10.04-16.62,4.36-4.59,8.52-6.88,12.49-6.88,3.57,0,7.07.7,10.49,2.11,3.47-4.22,6.02-8.91,7.66-14.05l8.48,3.86ZM329.74,243.82c0-2.56-1.27-3.85-3.8-3.85s-3.8,1.29-3.8,3.85,1.27,3.86,3.8,3.86,3.8-1.29,3.8-3.86Z"/>
  <path class="cls-12" d="M401.38,247.83c0,4.43-1.88,6.65-5.65,6.65-2.33,0-4.52-1.09-6.55-3.25l-28.05-31.56,6.84-5.97,24.26,27.49v-28.48c-.3.1-.79.15-1.49.15-2.97,0-5.51-1.06-7.59-3.17-2.08-2.11-3.12-4.66-3.12-7.63s1.04-5.51,3.12-7.63c2.08-2.11,4.61-3.17,7.59-3.17s5.56.95,7.59,2.83c2.03,1.89,3.05,4.54,3.05,7.97v45.77ZM394.54,202.06c0-2.57-1.27-3.85-3.8-3.85s-3.86,1.28-3.86,3.85,1.29,3.85,3.86,3.85,3.8-1.29,3.8-3.85Z"/>
  <path class="cls-12" d="M461.71,253.87h-9.15v-42.67c0-1.56-2.57-3.86-7.71-6.91-5.14-3.05-9.01-4.57-11.64-4.57-1.84,0-3.9,1.06-6.18,3.17-2.27,2.11-3.42,4.05-3.42,5.81,0,1.17.91,3.37,2.76,6.65.39-.8,1.11-2.04,2.15-3.7,2.73-3.93,6.08-5.89,10.05-5.89,3.22,0,5.8,1.03,7.74,3.1,1.93,2.07,2.9,4.49,2.9,7.25,0,2.92-1.01,5.39-3.05,7.4-2.03,2.01-4.51,3.02-7.44,3.02-3.37,0-6.12-1.31-8.26-3.93-1.09,2.06-1.64,3.58-1.64,4.53v26.74h-9.15v-30.28c0-.96-.81-2.96-2.45-6-1.63-3.05-2.46-5.91-2.46-8.58,0-4.73,2.4-9.01,7.22-12.84,4.06-3.27,7.81-4.91,11.23-4.91,4.56,0,10.45,2.19,17.67,6.57,7.22,4.38,10.83,8.16,10.83,11.33v44.71ZM442.52,216.11c0-2.57-1.27-3.85-3.8-3.85s-3.79,1.28-3.79,3.85,1.27,3.85,3.79,3.85,3.8-1.28,3.8-3.85Z"/>
  <path class="cls-12" d="M522.19,248.74c0,3.42-1.57,5.13-4.69,5.13h-2.91c-6.59-7.65-13.31-12.18-20.16-13.59v4.61c0,3.02-.96,5.37-2.86,7.05-1.92,1.7-4.41,2.54-7.48,2.54s-5.75-1.03-7.88-3.1c-2.13-2.06-3.2-4.73-3.2-8.01,0-3.02,1.11-5.63,3.34-7.85,2.24-2.21,5.24-3.47,9-3.77v-19.03c-.35.1-.87.15-1.57.15-2.92,0-5.43-1.06-7.51-3.17-2.09-2.11-3.13-4.66-3.13-7.63s1.04-5.51,3.13-7.63c2.08-2.11,4.58-3.17,7.51-3.17,3.08,0,5.62,1,7.63,2.98,2.01,2,3.01,4.6,3.01,7.82v30.14c7.44,1.16,13.64,4.15,18.6,8.99v-49.17h9.16v56.72ZM487.59,202.06c0-2.57-1.26-3.85-3.8-3.85s-3.79,1.28-3.79,3.85,1.26,3.85,3.79,3.85,3.8-1.29,3.8-3.85ZM485.66,244.28v-4.61c-1.24-.26-2.4,0-3.46.79-1.06.78-1.6,1.85-1.6,3.2,0,2.06.82,3.1,2.46,3.1,1.73,0,2.6-.83,2.6-2.49Z"/>
  <path class="cls-15" d="M365.44,158.12c0,10.08-8,18.25-17.89,18.25s-17.87-8.17-17.87-18.25,8-18.25,17.87-18.25,17.89,8.17,17.89,18.25Z"/>
  <path class="cls-12" d="M391.94,148.7c-2.92,6.55-6.88,11.83-11.87,15.85-5.6,4.54-11.9,6.81-18.87,6.81-7.48,0-13.26-1.63-17.3-4.88-3.3-2.72-4.96-5.95-4.96-9.68,0-3.16,1.02-5.71,3.04-7.68,2.03-1.96,4.43-2.94,7.21-2.94s5.23,1,7.21,3.01c1.98,2,2.97,4.4,2.97,7.17,0,2.53-.83,4.73-2.47,6.6,1.83.38,3.48.53,4.94.43,10.13-.57,17.88-6.74,23.25-18.5l6.85,3.81ZM352.86,156.37c0-2.44-1.23-3.67-3.68-3.67s-3.6,1.23-3.6,3.67,1.2,3.65,3.6,3.65,3.68-1.21,3.68-3.65Z"/>
  <g>
    <path class="cls-12" d="M97.99,304.82c0,.7-.29,1.04-.89,1.04h-.81c-1.64-1.47-2.85-2.46-3.65-3-1.6-1.09-3.28-1.76-5.02-1.98v2.77c0,.66-.23,1.23-.71,1.71-.48.49-1.03.72-1.69.72-.91,0-1.67-.29-2.29-.86-.61-.57-.92-1.37-.92-2.37s.39-1.8,1.17-2.48c.78-.67,1.69-1.01,2.7-1.01v-10.96c-.45.22-.92.34-1.42.34-.87,0-1.62-.3-2.23-.93-.62-.62-.93-1.38-.93-2.26s.31-1.64.93-2.26c.61-.61,1.36-.92,2.23-.92s1.61.3,2.23.89c.62.59.92,1.35.92,2.29v13.87c2.85.18,5.74,1.66,8.67,4.44v-21.21h1.7v22.15ZM86.13,285.57c0-1.12-.56-1.67-1.67-1.67s-1.65.56-1.65,1.67.55,1.69,1.65,1.69,1.67-.56,1.67-1.69ZM85.88,303.33v-2.38c-1.49,0-2.23.64-2.23,1.92,0,1.12.48,1.67,1.45,1.67.53,0,.78-.41.78-1.22Z"/>
    <path class="cls-12" d="M102.08,318.39c0,1.2-.73,1.81-2.18,1.81h-6.28v-1.49h1.59v-4.71c-.45.23-.92.34-1.42.34-.88,0-1.61-.32-2.23-.93-.61-.63-.93-1.38-.93-2.27s.32-1.64.93-2.25c.62-.61,1.35-.92,2.23-.92s1.62.3,2.24.89c.61.59.92,1.35.92,2.28v7.57h2.44c.42,0,.68-.06.78-.16.11-.11.17-.41.17-.9v-9.52h1.73v10.26ZM95.43,311.14c0-1.12-.54-1.67-1.64-1.67s-1.64.55-1.64,1.67.55,1.7,1.64,1.7,1.64-.56,1.64-1.7Z"/>
    <path class="cls-12" d="M127.1,305.87h-1.73v-.17c0-1.69-.56-4.65-1.7-8.86-1.42-4.96-2.79-7.44-4.13-7.44-.77,0-1.66.77-2.68,2.31-1.3,1.98-1.95,4.33-1.95,7.03,0,.7.04,1.4.11,2.09.54-.7,1.31-1.04,2.34-1.04.9,0,1.64.3,2.25.92.6.61.9,1.38.9,2.29,0,.84-.3,1.58-.9,2.19-.61.62-1.35.92-2.25.92-2.81,0-4.21-2.31-4.21-6.91,0-3.32.78-6.11,2.35-8.38,1.33-1.98,2.7-2.97,4.09-2.97,2.64,0,4.57,3.29,5.77,9.86v-9.8c0-.62-.78-1.42-2.34-2.38-1.68-1.01-3.22-1.51-4.63-1.51-.77,0-1.79.79-3.05,2.38-1.28,1.59-2.22,3.29-2.83,5.1l-1.59-.46c.61-2.09,1.72-4.07,3.32-5.92,1.6-1.85,2.97-2.77,4.11-2.77,1.88,0,3.84.64,5.88,1.9,1.91,1.2,2.87,2.21,2.87,3.03v18.6ZM119.04,302.99c0-1.14-.56-1.7-1.67-1.7s-1.65.56-1.65,1.7.55,1.66,1.65,1.66,1.67-.56,1.67-1.66Z"/>
    <path class="cls-12" d="M154.12,302.99c0,.84-.3,1.58-.91,2.19-.6.62-1.34.92-2.22.92s-1.64-.3-2.24-.89c-.61-.59-.91-1.34-.91-2.22,0-.7.2-1.31.61-1.82-1.28.12-2.68.68-4.18,1.69-1.5,1.01-2.57,2.02-3.17,3.01h-1.7v-17.44c-.47.22-.94.34-1.42.34-.87,0-1.61-.3-2.24-.93-.61-.62-.92-1.38-.92-2.26s.31-1.64.92-2.26c.62-.61,1.36-.92,2.24-.92s1.61.3,2.21.89c.61.59.91,1.35.91,2.29v17.75c.57-.81,1.63-1.61,3.15-2.38,1.93-1.04,3.78-1.46,5.55-1.28.34-.43.5-.91.5-1.44v-15.55h1.7v15.77c0,.35-.13.8-.38,1.39,1.67.43,2.5,1.49,2.5,3.15ZM139.61,285.57c0-1.12-.54-1.67-1.64-1.67s-1.67.56-1.67,1.67.56,1.69,1.67,1.69,1.64-.56,1.64-1.69ZM152.64,302.99c0-1.14-.54-1.7-1.64-1.7s-1.67.56-1.67,1.7.55,1.66,1.67,1.66,1.64-.56,1.64-1.66Z"/>
    <path class="cls-12" d="M157.06,279.95c-2.21-2.71-5.45-4.07-9.71-4.07-2.07,0-4.07.42-6,1.28-.06-.31-.08-.62-.08-.94,0-1.71.62-3.13,1.84-4.27,1.38-1.33,3.19-1.99,5.44-1.99,2.73,0,4.9.83,6.5,2.49,1.45,1.51,2.18,3.41,2.18,5.69,0,.63-.06,1.23-.17,1.81ZM155.28,276.53c-.18-1.4-.91-2.57-2.19-3.51-1.27-.95-2.81-1.42-4.59-1.42-1.34,0-2.49.32-3.44.95-.96.64-1.55,1.43-1.78,2.39,1.34-.49,2.82-.73,4.46-.73,3.39,0,5.9.77,7.54,2.32Z"/>
    <path class="cls-12" d="M179.61,286.05c-.33.04-.68.06-1.03.06-.99,0-2.14-.29-3.46-.88-1.53-.7-2.76-1.1-3.68-1.22v4.05l5.33.16c1.17.04,1.76.61,1.76,1.7v14.45c0,1-.59,1.49-1.76,1.49h-10.4v-1.49h2.23c.76,0,1.14-.36,1.14-1.1v-13.68l-6.22-.19v-.46c0-2.01.64-3.64,1.92-4.87,1.27-1.12,2.83-1.67,4.69-1.67,1.63,0,3.35.39,5.16,1.17,1.67.72,3.11,1.03,4.32.96v1.53ZM169.74,288v-4.1c-1.17.04-2.2.47-3.09,1.3-.88.83-1.32,1.67-1.32,2.52v.17l4.41.11ZM176.81,303.61v-12.89c0-.64-.33-.96-1.03-.96l-4.35-.11v14.73h4.47c.61,0,.91-.25.91-.77Z"/>
    <path class="cls-12" d="M183.58,279.95c-2.21-2.71-5.45-4.07-9.71-4.07-2.06,0-4.06.42-6,1.28-.05-.31-.08-.62-.08-.94,0-1.71.61-3.13,1.84-4.27,1.39-1.33,3.19-1.99,5.45-1.99,2.74,0,4.9.83,6.5,2.49,1.46,1.51,2.18,3.41,2.18,5.69,0,.63-.06,1.23-.17,1.81ZM181.8,276.53c-.19-1.4-.92-2.57-2.19-3.51-1.27-.95-2.8-1.42-4.59-1.42-1.34,0-2.49.32-3.44.95-.96.64-1.55,1.43-1.78,2.39,1.33-.49,2.83-.73,4.47-.73,3.38,0,5.89.77,7.53,2.32Z"/>
    <path class="cls-12" d="M201.39,302.99c0,.88-.29,1.63-.9,2.22-.61.59-1.34.89-2.22.89s-1.62-.29-2.23-.86c-.62-.57-.93-1.33-.93-2.25v-20.31h1.73v17.45c.44-.23.92-.34,1.42-.34.88,0,1.61.3,2.22.92.61.61.9,1.38.9,2.29ZM199.91,302.99c0-1.14-.54-1.7-1.64-1.7s-1.67.56-1.67,1.7.56,1.66,1.67,1.66,1.64-.56,1.64-1.66Z"/>
    <path class="cls-12" d="M224.3,305.87h-1.72v-16.36c0-.5-1.18-1.52-3.53-3.09-2.35-1.57-4.07-2.34-5.15-2.34-.72,0-1.55.49-2.49,1.47-.93.99-1.39,1.98-1.39,3,0,.78.16,1.53.5,2.27.45,1.08.82,1.33,1.07.76.25-.57.76-1.35,1.52-2.35.99-1.3,2.08-1.95,3.29-1.95.91,0,1.67.31,2.28.92.62.61.92,1.37.92,2.25s-.29,1.58-.87,2.2c-.59.63-1.33.94-2.22.94-.8,0-1.46-.26-1.99-.75-.54-.5-.85-1.04-.97-1.63-.36.34-.71.9-1.06,1.66-.35.78-.53,1.4-.53,1.4v11.6h-1.73v-11.29c0-.39-.3-1.22-.91-2.45-.6-1.23-.9-2.37-.9-3.41,0-1.66.7-3.17,2.1-4.53,1.23-1.19,2.35-1.78,3.37-1.78,1.45,0,3.54.91,6.29,2.72,2.75,1.81,4.11,3.13,4.11,3.94v16.82ZM218.25,290.44c0-1.15-.58-1.73-1.73-1.73s-1.7.58-1.7,1.73.56,1.75,1.7,1.75,1.73-.58,1.73-1.75Z"/>
    <path class="cls-12" d="M246.86,285.74l-.56,1.47c-1.18-.1-2.57-.68-4.17-1.74-1.61-1.06-2.6-1.58-2.97-1.58-.69,0-1.46.44-2.31,1.33-.86.89-1.28,1.61-1.28,2.15v.17h4.91c.72,0,1.09.38,1.09,1.16v14.28c0,.92-.3,1.68-.92,2.25-.61.58-1.36.86-2.23.86s-1.61-.3-2.22-.89c-.6-.59-.91-1.34-.91-2.22s.3-1.67.91-2.29c.6-.61,1.34-.92,2.22-.92.5,0,.99.11,1.45.34v-11.08h-4.75c-.93,0-1.39-.22-1.39-.67,0-1.48.67-2.88,2.01-4.2,1.23-1.23,2.37-1.84,3.43-1.84.76,0,1.98.55,3.65,1.67,1.67,1.12,3.02,1.69,4.05,1.74ZM240.08,302.99c0-1.14-.56-1.7-1.67-1.7s-1.64.56-1.64,1.7.54,1.66,1.64,1.66,1.67-.56,1.67-1.66Z"/>
    <path class="cls-12" d="M249.97,280.12c-2.22-2.71-5.45-4.07-9.71-4.07-2.06,0-4.06.4-6,1.22-.02-.27-.05-.55-.05-.86,0-1.66.65-3.13,1.94-4.41,1.29-1.29,3.07-1.93,5.32-1.93.87,0,1.65.11,2.34.32v-3.97h1.7v4.42c.87.3,1.64.78,2.28,1.44v-5.86h1.71v8.47c.72,1.66.88,3.4.47,5.23ZM248.23,276.71c-.19-1.4-.92-2.57-2.22-3.51-1.29-.95-2.83-1.42-4.61-1.42-1.3,0-2.43.32-3.4.95-.97.63-1.55,1.44-1.76,2.42,1.3-.55,2.79-.83,4.47-.83,3.35,0,5.85.79,7.53,2.38Z"/>
    <path class="cls-12" d="M272.62,304.76c0,.7-.29,1.06-.89,1.06h-10.52c-.61,0-.91-.35-.91-1.06v-13.16c0-.92.3-1.68.91-2.28.62-.59,1.36-.89,2.24-.89s1.61.3,2.22.92c.6.61.91,1.37.91,2.25s-.31,1.64-.91,2.26c-.6.63-1.34.93-2.22.93-.5,0-.97-.11-1.42-.34v9.86h8.9v-16.49c0-.58-.89-1.38-2.68-2.38-1.79-1-3.37-1.49-4.75-1.49-.8,0-1.81.73-3.04,2.2-1.06,1.31-1.95,2.71-2.68,4.22l-1.42-.68c.87-1.94,1.98-3.65,3.36-5.13,1.36-1.49,2.59-2.23,3.66-2.23,1.89,0,3.95.64,6.16,1.9,2.05,1.2,3.07,2.2,3.07,2.97v17.55ZM265.1,291.6c0-1.11-.55-1.67-1.65-1.67s-1.67.56-1.67,1.67.56,1.7,1.67,1.7,1.65-.57,1.65-1.7Z"/>
    <path class="cls-12" d="M296.18,304.71c0,.78-.38,1.16-1.14,1.16h-10.26v-1.49h1.93c.47,0,.69-.21.69-.59v-11.19c0-.43.49-1.06,1.45-1.87.97-.81,1.46-1.85,1.46-3.12,0-1.13-.41-2.03-1.23-2.69-.81-.68-1.76-1.01-2.82-1.01-2.21,0-3.6.81-4.18,2.44.17-.05.41-.07.75-.07.8,0,1.49.29,2.07.84.58.55.87,1.24.87,2.05s-.29,1.5-.87,2.07c-.58.56-1.27.84-2.07.84s-1.54-.32-2.1-.96c-.57-.64-.85-1.52-.85-2.63,0-1.76.63-3.21,1.88-4.36,1.26-1.15,2.72-1.73,4.39-1.73s3.17.49,4.29,1.48c1.11.97,1.66,2.2,1.66,3.68s-.5,2.75-1.49,3.77c-.99,1-1.49,1.57-1.49,1.72v11.34h4.63c.5,0,.75-.24.75-.71v-20.99h1.7v22.03ZM284.35,289.17c0-1.01-.49-1.51-1.48-1.51s-1.48.5-1.48,1.51.5,1.5,1.48,1.5,1.48-.5,1.48-1.5Z"/>
    <path class="cls-12" d="M299.96,275.66h-1.73v-10.03h1.73v10.03Z"/>
    <path class="cls-12" d="M321.68,305.87h-1.73v-17.81c0-.41-.82-1.2-2.48-2.34-1.66-1.14-2.89-1.71-3.68-1.71-.54,0-1.47.86-2.79,2.56-1.12,1.39-2.07,2.74-2.88,4.05l-1.31-.79c.88-1.63,1.95-3.17,3.22-4.64,1.6-1.86,2.87-2.78,3.82-2.78,1.13,0,2.73.69,4.78,2.06,2.04,1.37,3.07,2.42,3.07,3.15v18.27Z"/>
    <path class="cls-12" d="M346.62,304.82c0,.7-.3,1.04-.89,1.04h-12.36v-8.58c0-1.58.75-2.68,2.28-3.25-2.65,0-3.98-1.4-3.98-4.17v-4.3c0-.93.3-1.69.9-2.29.6-.59,1.35-.89,2.25-.89s1.61.31,2.22.92c.6.61.91,1.37.91,2.26s-.3,1.64-.91,2.26c-.6.63-1.34.93-2.22.93-.62,0-1.17-.19-1.67-.59v1.59c0,2.15,1.46,3.23,4.41,3.23h1.15v1.32l-.75.15c-1.89.3-2.85,1.32-2.85,3.06v6.86h9.82v-21.7h1.7v22.15ZM336.47,285.57c0-1.12-.55-1.67-1.64-1.67s-1.67.56-1.67,1.67.56,1.69,1.67,1.69,1.64-.56,1.64-1.69Z"/>
    <path class="cls-12" d="M373.22,304.76c0,.9-.35,1.33-1.03,1.33h-.11c-.65,0-1.09-.46-1.31-1.39l-4.79-19.37-4.57,19.37c-.22.93-.66,1.39-1.32,1.39h-.11c-.69,0-1.03-.44-1.03-1.33v-16.34c-.47.22-.94.34-1.42.34-.87,0-1.62-.3-2.24-.93-.61-.62-.92-1.38-.92-2.26s.31-1.64.92-2.26c.62-.61,1.36-.92,2.24-.92s1.61.3,2.22.89c.6.59.9,1.35.9,2.29v16.93l4.75-19.83h1.15l4.96,19.83v-19.83h1.73v22.08ZM359.16,285.57c0-1.12-.55-1.67-1.65-1.67s-1.67.56-1.67,1.67.56,1.69,1.67,1.69,1.65-.56,1.65-1.69Z"/>
    <path class="cls-12" d="M398.31,305.87h-1.74v-.17c0-1.69-.56-4.65-1.7-8.86-1.42-4.96-2.79-7.44-4.13-7.44-.77,0-1.66.77-2.68,2.31-1.3,1.98-1.95,4.33-1.95,7.03,0,.7.04,1.4.11,2.09.54-.7,1.32-1.04,2.34-1.04.9,0,1.64.3,2.25.92.6.61.9,1.38.9,2.29,0,.84-.3,1.58-.9,2.19-.61.62-1.35.92-2.25.92-2.8,0-4.21-2.31-4.21-6.91,0-3.32.79-6.11,2.35-8.38,1.34-1.98,2.7-2.97,4.09-2.97,2.64,0,4.57,3.29,5.77,9.86v-9.8c0-.62-.78-1.42-2.34-2.38-1.67-1.01-3.22-1.51-4.63-1.51-.77,0-1.78.79-3.05,2.38-1.27,1.59-2.22,3.29-2.83,5.1l-1.59-.46c.61-2.09,1.71-4.07,3.31-5.92,1.6-1.85,2.97-2.77,4.1-2.77,1.88,0,3.85.64,5.89,1.9,1.92,1.2,2.88,2.21,2.88,3.03v18.6ZM390.24,302.99c0-1.14-.55-1.7-1.67-1.7s-1.64.56-1.64,1.7.55,1.66,1.64,1.66,1.67-.56,1.67-1.66Z"/>
    <path class="cls-12" d="M411.63,269.05c-1,2.19-2.42,3.99-4.24,5.38-2.04,1.63-4.37,2.44-6.98,2.44s-4.79-.53-6.28-1.61c-1.23-.92-1.84-2.05-1.84-3.36,0-1.01.34-1.83,1.01-2.5.67-.66,1.46-1,2.37-1s1.63.34,2.28,1c.66.67.99,1.43.99,2.33,0,1.51-.63,2.49-1.9,2.94,1.12.44,2.34.62,3.68.54,4.26-.25,7.4-2.57,9.41-6.96l1.51.81ZM397.35,271.72c0-1.14-.56-1.7-1.67-1.7s-1.65.56-1.65,1.7.55,1.66,1.65,1.66,1.67-.56,1.67-1.66Z"/>
    <path class="cls-12" d="M423.04,304.32c0,1.18-.41,1.78-1.26,1.78-.62,0-1.21-.33-1.78-.99l-9.99-12.12,1.25-1.17,10.08,12.19v-15.58c-.47.22-.96.34-1.45.34-.87,0-1.62-.3-2.22-.93-.6-.62-.91-1.38-.91-2.26s.3-1.64.91-2.26c.6-.61,1.34-.92,2.22-.92s1.62.3,2.23.89c.62.59.92,1.35.92,2.29v18.75ZM421.57,285.57c0-1.12-.56-1.67-1.67-1.67s-1.65.56-1.65,1.67.56,1.69,1.65,1.69,1.67-.56,1.67-1.69Z"/>
    <path class="cls-12" d="M448.37,278.6c-.62,1.95-1.71,3.81-3.28,5.58,2.03,1.21,3.04,2.23,3.04,3.09v18.6h-1.73v-.17c0-1.69-.57-4.65-1.7-8.86-1.41-4.96-2.79-7.44-4.13-7.44-.76,0-1.65.77-2.67,2.31-1.31,1.98-1.96,4.33-1.96,7.03,0,.7.04,1.4.11,2.09.53-.7,1.31-1.04,2.34-1.04.9,0,1.65.3,2.25.92.6.61.91,1.38.91,2.29,0,.84-.31,1.58-.91,2.19-.6.62-1.35.92-2.25.92-2.81,0-4.21-2.31-4.21-6.91,0-3.32.78-6.11,2.34-8.38,1.34-1.98,2.71-2.97,4.11-2.97,2.64,0,4.57,3.29,5.77,9.86v-9.8c0-.62-.78-1.42-2.35-2.38-1.67-1.01-3.21-1.51-4.63-1.51-.8,0-1.82.79-3.08,2.36-1.25,1.57-2.2,3.28-2.8,5.12l-1.6-.46c.61-2.09,1.72-4.07,3.32-5.92,1.6-1.85,2.96-2.77,4.1-2.77,1.37,0,2.79.34,4.24,1.02,1.6-1.92,2.64-3.78,3.13-5.55l1.63.79ZM440.07,302.99c0-1.14-.56-1.7-1.67-1.7s-1.64.56-1.64,1.7.54,1.66,1.64,1.66,1.67-.56,1.67-1.66Z"/>
    <path class="cls-12" d="M461.45,269.05c-1,2.19-2.42,3.99-4.24,5.38-2.05,1.63-4.37,2.44-6.97,2.44s-4.79-.53-6.28-1.61c-1.23-.92-1.84-2.05-1.84-3.36,0-1.01.33-1.83,1-2.5.68-.66,1.46-1,2.37-1s1.64.34,2.29,1c.66.67.98,1.43.98,2.33,0,1.51-.63,2.49-1.9,2.94,1.12.44,2.34.62,3.69.54,4.25-.25,7.39-2.57,9.4-6.96l1.5.81ZM447.17,271.72c0-1.14-.56-1.7-1.67-1.7s-1.64.56-1.64,1.7.55,1.66,1.64,1.66,1.67-.56,1.67-1.66Z"/>
    <path class="cls-12" d="M472.86,304.32c0,1.18-.41,1.78-1.24,1.78-.62,0-1.21-.33-1.79-.99l-9.98-12.12,1.26-1.17,10.07,12.19v-15.58c-.47.22-.95.34-1.45.34-.87,0-1.61-.3-2.22-.93-.6-.62-.9-1.38-.9-2.26s.3-1.64.9-2.26c.6-.61,1.34-.92,2.22-.92s1.62.3,2.24.89c.61.59.91,1.35.91,2.29v18.75ZM471.39,285.57c0-1.12-.56-1.67-1.67-1.67s-1.65.56-1.65,1.67.56,1.69,1.65,1.69,1.67-.56,1.67-1.69Z"/>
    <path class="cls-12" d="M498.35,305.87h-1.73v-16.36c0-.5-1.17-1.52-3.53-3.09-2.36-1.57-4.07-2.34-5.14-2.34-.73,0-1.55.49-2.49,1.47-.93.99-1.4,1.98-1.4,3,0,.78.17,1.53.5,2.27.47,1.08.83,1.33,1.08.76.25-.57.75-1.35,1.52-2.35.99-1.3,2.09-1.95,3.29-1.95.91,0,1.67.31,2.29.92.61.61.92,1.37.92,2.25s-.29,1.58-.88,2.2c-.58.63-1.32.94-2.21.94-.8,0-1.47-.26-2-.75-.53-.5-.86-1.04-.96-1.63-.35.34-.7.9-1.06,1.66-.36.78-.53,1.4-.53,1.4v11.6h-1.73v-11.29c0-.39-.3-1.22-.9-2.45-.6-1.23-.91-2.37-.91-3.41,0-1.66.7-3.17,2.09-4.53,1.23-1.19,2.35-1.78,3.38-1.78,1.45,0,3.54.91,6.29,2.72,2.74,1.81,4.11,3.13,4.11,3.94v16.82ZM492.3,290.44c0-1.15-.57-1.73-1.73-1.73s-1.71.58-1.71,1.73.57,1.75,1.71,1.75,1.73-.58,1.73-1.75Z"/>
    <path class="cls-12" d="M523.31,304.82c0,.7-.3,1.04-.9,1.04h-.81c-1.64-1.47-2.85-2.46-3.65-3-1.6-1.09-3.28-1.76-5.03-1.98v2.77c0,.66-.24,1.23-.71,1.71-.48.49-1.04.72-1.69.72-.91,0-1.67-.29-2.29-.86-.61-.57-.92-1.37-.92-2.37s.38-1.8,1.17-2.48c.78-.67,1.69-1.01,2.7-1.01v-10.96c-.44.22-.92.34-1.42.34-.88,0-1.62-.3-2.24-.93-.62-.62-.92-1.38-.92-2.26s.3-1.64.92-2.26c.62-.61,1.36-.92,2.24-.92s1.62.3,2.23.89c.62.59.91,1.35.91,2.29v13.87c2.85.18,5.74,1.66,8.68,4.44v-21.21h1.7v22.15ZM511.45,285.57c0-1.12-.56-1.67-1.67-1.67s-1.65.56-1.65,1.67.55,1.69,1.65,1.69,1.67-.56,1.67-1.69ZM511.2,303.33v-2.38c-1.48,0-2.24.64-2.24,1.92,0,1.12.49,1.67,1.46,1.67.52,0,.78-.41.78-1.22Z"/>
  </g>
  <path class="cls-12" d="M532.77,342.04H67.23c-14.74,0-26.74-12.71-26.74-28.35V71.31c0-15.63,12-28.35,26.74-28.35h465.54c14.75,0,26.74,12.72,26.74,28.35v242.38c0,15.63-11.99,28.35-26.74,28.35ZM67.23,45.71c-13.25,0-24.04,11.49-24.04,25.61v242.38c0,14.12,10.78,25.61,24.04,25.61h465.54c13.27,0,24.05-11.49,24.05-25.61V71.31c0-14.12-10.78-25.61-24.05-25.61H67.23Z"/>
  <path class="cls-12" d="M532.77,342.04H67.23c-14.74,0-26.74-12.71-26.74-28.35V71.31c0-15.63,12-28.35,26.74-28.35h465.54c14.75,0,26.74,12.72,26.74,28.35v242.38c0,15.63-11.99,28.35-26.74,28.35ZM67.23,45.71c-13.25,0-24.04,11.49-24.04,25.61v242.38c0,14.12,10.78,25.61,24.04,25.61h465.54c13.27,0,24.05-11.49,24.05-25.61V71.31c0-14.12-10.78-25.61-24.05-25.61H67.23Z"/>
  <g>
    <g>
      <path class="cls-1" d="M347.06,131.17c-2.54-.17-7.07-10.77-6.84-17.1.21-6.33,5.61-21.05,8.15-20.9,2.54.17,7.29,15.52,7.1,21.88-.19,6.36-5.86,16.27-8.41,16.11h0Z"/>
      <path class="cls-6" d="M347.13,132.54h-.16c-4.02-.27-8.32-12.43-8.11-18.52.2-5.56,5.28-22.22,9.46-22.22,4.26.28,8.66,17.92,8.49,23.3-.19,6.31-5.82,17.43-9.68,17.43ZM348.3,94.67c-1.89,1.66-6.54,13.44-6.74,19.45-.2,5.86,3.91,14.95,5.59,15.66,1.63-.48,6.78-8.67,6.97-14.76.18-6.12-3.94-18.51-5.82-20.36Z"/>
    </g>
    <g>
      <path class="cls-6" d="M347.06,131.17c-2.54-.17-7.07-10.77-6.84-17.1.21-6.33,5.61-21.05,8.15-20.9,2.54.17,7.29,15.52,7.1,21.88-.19,6.36-5.86,16.27-8.41,16.11h0Z"/>
      <path class="cls-6" d="M347.13,132.54h-.16c-4.02-.27-8.32-12.43-8.11-18.52.2-5.56,5.28-22.22,9.46-22.22,4.26.28,8.66,17.92,8.49,23.3-.19,6.31-5.82,17.43-9.68,17.43ZM348.3,94.67c-1.89,1.66-6.54,13.44-6.74,19.45-.2,5.86,3.91,14.95,5.59,15.66,1.63-.48,6.78-8.67,6.97-14.76.18-6.12-3.94-18.51-5.82-20.36Z"/>
    </g>
  </g>
  <g>
    <g>
      <path class="cls-4" d="M366.5,111.24c-2.4-.87-3.87-12.33-1.95-18.35,1.93-6.03,11.11-18.67,13.51-17.8,2.4.87,2.8,16.96.88,23.01-1.91,6.06-10.05,14-12.45,13.13h0Z"/>
      <path class="cls-18" d="M366.91,112.68c-.31,0-.6-.06-.86-.15-3.8-1.38-4.63-14.27-2.78-20.06,1.74-5.45,10.56-18.79,14.53-18.79l.72.12c3.9,1.41,3.32,19.6,1.71,24.72-1.87,5.95-9.59,14.15-13.32,14.15ZM377.59,76.5c-2.2.99-9.92,11.07-11.75,16.82-1.78,5.58-.3,15.45,1.12,16.62,2-.1,8.97-6.71,10.71-12.25,1.84-5.84,1.24-18.94-.08-21.19Z"/>
    </g>
    <g>
      <path class="cls-18" d="M366.5,111.24c-2.4-.87-3.87-12.33-1.95-18.35,1.93-6.03,11.11-18.67,13.51-17.8,2.4.87,2.8,16.96.88,23.01-1.91,6.06-10.05,14-12.45,13.13h0Z"/>
      <path class="cls-18" d="M366.91,112.68c-.31,0-.6-.06-.86-.15-3.8-1.38-4.63-14.27-2.78-20.06,1.74-5.45,10.56-18.79,14.53-18.79l.72.12c3.9,1.41,3.32,19.6,1.71,24.72-1.87,5.95-9.59,14.15-13.32,14.15ZM377.59,76.5c-2.2.99-9.92,11.07-11.75,16.82-1.78,5.58-.3,15.45,1.12,16.62,2-.1,8.97-6.71,10.71-12.25,1.84-5.84,1.24-18.94-.08-21.19Z"/>
    </g>
  </g>
  <g>
    <g>
      <path class="cls-14" d="M328.31,110.57c-2.45.71-10.23-7.72-12.12-13.76-1.89-6.03-1.69-21.74.77-22.46,2.45-.72,12,12.13,13.93,18.18,1.93,6.06-.13,17.32-2.58,18.04h0Z"/>
      <path class="cls-7" d="M327.99,111.98c-3.84,0-11.29-9.06-13.08-14.75-1.68-5.37-1.88-18.95.13-22.78.4-.76.92-1.24,1.55-1.41l.59-.09c3.96,0,13.32,13.89,14.99,19.17,1.67,5.2.63,13.93-1.34,17.67-.62,1.18-1.32,1.86-2.15,2.1-.22.06-.45.1-.69.1ZM327.99,109.24v1.37-1.37s0,0,0,0ZM317.39,75.77c-1.23,2.22-1.7,14.89.1,20.62,1.77,5.67,8.63,12.76,10.47,12.85,1.33-.88,3.51-10.44,1.65-16.29-1.85-5.82-9.84-16.09-12.22-17.18Z"/>
    </g>
    <g>
      <path class="cls-7" d="M328.31,110.57c-2.45.71-10.23-7.72-12.12-13.76-1.89-6.03-1.69-21.74.77-22.46,2.45-.72,12,12.13,13.93,18.18,1.93,6.06-.13,17.32-2.58,18.04h0Z"/>
      <path class="cls-7" d="M327.99,111.98c-3.84,0-11.29-9.06-13.08-14.75-1.68-5.37-1.88-18.95.13-22.78.4-.76.92-1.24,1.55-1.41l.59-.09c3.96,0,13.32,13.89,14.99,19.17,1.67,5.2.63,13.93-1.34,17.67-.62,1.18-1.32,1.86-2.15,2.1-.22.06-.45.1-.69.1ZM327.99,109.24v1.37-1.37s0,0,0,0ZM317.39,75.77c-1.23,2.22-1.7,14.89.1,20.62,1.77,5.67,8.63,12.76,10.47,12.85,1.33-.88,3.51-10.44,1.65-16.29-1.85-5.82-9.84-16.09-12.22-17.18Z"/>
    </g>
  </g>
  <g>
    <g>
      <path class="cls-9" d="M366.21,139.57c-2.01-1.59.17-12.94,3.87-18.03,3.71-5.09,16.36-14.13,18.37-12.54,2,1.6-2.64,16.99-6.34,22.12-3.7,5.15-13.89,10.06-15.89,8.46h0Z"/>
      <path class="cls-2" d="M367.38,141.25c-.83,0-1.51-.21-2.01-.6-3.16-2.52.07-15.03,3.62-19.92,3.58-4.93,14.84-13.28,18.78-13.28.6,0,1.11.16,1.51.47,3.25,2.6-2.96,19.66-6.09,24.01-3.39,4.71-11.92,9.33-15.81,9.33ZM367.07,138.49s.14.02.3.02c2.84,0,10.65-4.06,13.64-8.21,3.56-4.93,7.05-17.47,6.55-20.1-2.97.43-13.12,7.64-16.4,12.14-3.44,4.74-5.11,14.63-4.11,16.15h.02Z"/>
    </g>
    <g>
      <path class="cls-2" d="M366.21,139.57c-2.01-1.59.17-12.94,3.87-18.03,3.71-5.09,16.36-14.13,18.37-12.54,2,1.6-2.64,16.99-6.34,22.12-3.7,5.15-13.89,10.06-15.89,8.46h0Z"/>
      <path class="cls-2" d="M367.38,141.25c-.83,0-1.51-.21-2.01-.6-3.16-2.52.07-15.03,3.62-19.92,3.58-4.93,14.84-13.28,18.78-13.28.6,0,1.11.16,1.51.47,3.25,2.6-2.96,19.66-6.09,24.01-3.39,4.71-11.92,9.33-15.81,9.33ZM367.07,138.49s.14.02.3.02c2.84,0,10.65-4.06,13.64-8.21,3.56-4.93,7.05-17.47,6.55-20.1-2.97.43-13.12,7.64-16.4,12.14-3.44,4.74-5.11,14.63-4.11,16.15h.02Z"/>
    </g>
  </g>
  <g>
    <g>
      <path class="cls-16" d="M390.88,136.42c-.99-2.39,6.32-11.23,12-13.87,5.68-2.63,21.07-4.31,22.05-1.93.99,2.39-10.42,13.56-16.1,16.23-5.69,2.66-16.95,1.94-17.96-.44h0Z"/>
      <path class="cls-5" d="M399.35,139.92c-1.99,0-8.55-.21-9.7-2.97-1.57-3.76,7.22-13.11,12.67-15.64,4.13-1.91,12.45-3.2,17.64-3.2,3.78,0,5.64.6,6.22,1.98,1.6,3.88-11.97,15.74-16.79,18.01-2.47,1.16-6.14,1.82-10.05,1.82ZM419.97,120.85c-5.41,0-13.13,1.38-16.52,2.95-5.31,2.46-11.56,10.41-11.3,12.14.31.36,2.8,1.25,7.21,1.25,3.53,0,6.78-.58,8.91-1.58,5.46-2.56,14.51-11.81,15.33-14.37-.41-.15-1.4-.39-3.63-.39Z"/>
    </g>
    <g>
      <path class="cls-5" d="M390.88,136.42c-.99-2.39,6.32-11.23,12-13.87,5.68-2.63,21.07-4.31,22.05-1.93.99,2.39-10.42,13.56-16.1,16.23-5.69,2.66-16.95,1.94-17.96-.44h0Z"/>
      <path class="cls-5" d="M399.35,139.92c-1.99,0-8.55-.21-9.7-2.97-1.57-3.76,7.22-13.11,12.67-15.64,4.13-1.91,12.45-3.2,17.64-3.2,3.78,0,5.64.6,6.22,1.98,1.6,3.88-11.97,15.74-16.79,18.01-2.47,1.16-6.14,1.82-10.05,1.82ZM419.97,120.85c-5.41,0-13.13,1.38-16.52,2.95-5.31,2.46-11.56,10.41-11.3,12.14.31.36,2.8,1.25,7.21,1.25,3.53,0,6.78-.58,8.91-1.58,5.46-2.56,14.51-11.81,15.33-14.37-.41-.15-1.4-.39-3.63-.39Z"/>
    </g>
  </g>
  <g>
    <g>
      <path class="cls-10" d="M331.21,138.94c-2.01,1.59-12.33-3.29-16.3-8.17-3.98-4.89-9.56-19.54-7.56-21.13,2.01-1.59,15.6,6.7,19.61,11.59,4.01,4.88,6.26,16.12,4.24,17.71h0Z"/>
      <path class="cls-17" d="M330.03,140.61c-3.79,0-12.46-4.44-16.15-8.97-3.54-4.35-8.72-16.88-8.26-21.18.1-.86.41-1.49.92-1.9.4-.32.94-.49,1.58-.49,4.14,0,16.25,7.83,19.89,12.28,3.46,4.2,5.7,12.68,5.25,16.9-.14,1.32-.54,2.23-1.22,2.76-.49.39-1.17.6-2.01.6ZM308.28,110.82c-.31,2.55,3.9,14.45,7.68,19.07,3.35,4.11,11.22,7.97,14.07,7.97.29,0,.41-.04.41-.04.88-1.22-.6-10.99-4.5-15.72-3.57-4.35-14.55-11.05-17.66-11.28Z"/>
    </g>
    <g>
      <path class="cls-17" d="M331.21,138.94c-2.01,1.59-12.33-3.29-16.3-8.17-3.98-4.89-9.56-19.54-7.56-21.13,2.01-1.59,15.6,6.7,19.61,11.59,4.01,4.88,6.26,16.12,4.24,17.71h0Z"/>
      <path class="cls-17" d="M330.03,140.61c-3.79,0-12.46-4.44-16.15-8.97-3.54-4.35-8.72-16.88-8.26-21.18.1-.86.41-1.49.92-1.9.4-.32.94-.49,1.58-.49,4.14,0,16.25,7.83,19.89,12.28,3.46,4.2,5.7,12.68,5.25,16.9-.14,1.32-.54,2.23-1.22,2.76-.49.39-1.17.6-2.01.6ZM308.28,110.82c-.31,2.55,3.9,14.45,7.68,19.07,3.35,4.11,11.22,7.97,14.07,7.97.29,0,.41-.04.41-.04.88-1.22-.6-10.99-4.5-15.72-3.57-4.35-14.55-11.05-17.66-11.28Z"/>
    </g>
  </g>
  <g>
    <g>
      <path class="cls-3" d="M301.93,134.62c-1.16,2.31-12.54,2.32-18.17-.4-5.64-2.71-16.81-13.59-15.65-15.9,1.15-2.3,16.93-.62,22.6,2.08,5.67,2.71,12.38,11.92,11.22,14.23h0Z"/>
      <path class="cls-11" d="M294.94,137.67c-3.46,0-8.38-.58-11.76-2.22-5.02-2.41-14.93-11.54-16.31-15.65-.27-.81-.26-1.52.04-2.11.65-1.29,2.5-1.83,6.22-1.83,5.43,0,14.01,1.32,18.15,3.28,4.88,2.32,10.44,9.04,11.8,13.06.42,1.26.44,2.25.05,3.03-1,2.01-5.01,2.43-8.18,2.43ZM269.43,118.99c.79,2.45,9.57,11.41,14.9,13.98,2.46,1.19,6.63,1.95,10.61,1.95,3.75,0,5.54-.67,5.82-.98.3-1.49-5.12-9.7-10.62-12.31-3.4-1.62-11.33-3.03-17.01-3.03-2.27,0-3.29.24-3.7.39Z"/>
    </g>
    <g>
      <path class="cls-11" d="M301.93,134.62c-1.16,2.31-12.54,2.32-18.17-.4-5.64-2.71-16.81-13.59-15.65-15.9,1.15-2.3,16.93-.62,22.6,2.08,5.67,2.71,12.38,11.92,11.22,14.23h0Z"/>
      <path class="cls-11" d="M294.94,137.67c-3.46,0-8.38-.58-11.76-2.22-5.02-2.41-14.93-11.54-16.31-15.65-.27-.81-.26-1.52.04-2.11.65-1.29,2.5-1.83,6.22-1.83,5.43,0,14.01,1.32,18.15,3.28,4.88,2.32,10.44,9.04,11.8,13.06.42,1.26.44,2.25.05,3.03-1,2.01-5.01,2.43-8.18,2.43ZM269.43,118.99c.79,2.45,9.57,11.41,14.9,13.98,2.46,1.19,6.63,1.95,10.61,1.95,3.75,0,5.54-.67,5.82-.98.3-1.49-5.12-9.7-10.62-12.31-3.4-1.62-11.33-3.03-17.01-3.03-2.27,0-3.29.24-3.7.39Z"/>
    </g>
  </g>
  <g>
    <g>
      <path class="cls-8" d="M326.78,153.45c-.13,2.59-10.52,7.3-16.76,7.15-6.24-.15-20.8-5.47-20.67-8.06.14-2.58,15.21-7.56,21.47-7.44,6.27.13,16.09,5.77,15.96,8.35h0Z"/>
      <path class="cls-13" d="M310.31,161.97h-.33c-5.55-.14-18.27-4.38-21.17-7.55-.57-.64-.85-1.29-.81-1.95.22-4.21,17.05-8.75,22.58-8.75,5.65.11,13.43,3.96,16.28,7.06.89.97,1.3,1.87,1.25,2.73-.2,3.97-11.76,8.45-17.8,8.45ZM290.81,152.6c1.66,1.97,13.2,6.48,19.24,6.63h.26c5.92,0,14.63-4.28,15.12-5.91-.32-1.48-8.57-6.74-14.64-6.86h0c-6.32,0-18.22,4.22-19.98,6.14Z"/>
    </g>
    <g>
      <path class="cls-13" d="M326.78,153.45c-.13,2.59-10.52,7.3-16.76,7.15-6.24-.15-20.8-5.47-20.67-8.06.14-2.58,15.21-7.56,21.47-7.44,6.27.13,16.09,5.77,15.96,8.35h0Z"/>
      <path class="cls-13" d="M310.31,161.97h-.33c-5.55-.14-18.27-4.38-21.17-7.55-.57-.64-.85-1.29-.81-1.95.22-4.21,17.05-8.75,22.58-8.75,5.65.11,13.43,3.96,16.28,7.06.89.97,1.3,1.87,1.25,2.73-.2,3.97-11.76,8.45-17.8,8.45ZM290.81,152.6c1.66,1.97,13.2,6.48,19.24,6.63h.26c5.92,0,14.63-4.28,15.12-5.91-.32-1.48-8.57-6.74-14.64-6.86h0c-6.32,0-18.22,4.22-19.98,6.14Z"/>
    </g>
  </g>
</svg>